<svg xmlns="http://www.w3.org/2000/svg" viewBox="0 0 1200 560" role="img" aria-labelledby="title desc">
<title id="title">Revati G Chavadal — sequential 3D profile assembly</title>
<desc id="desc">A nine-stage cinematic profile animation: platform, profile, skills, GitHub data, activity, streak, geometric assets, merge, and final profile badge.</desc>
<defs>
  <linearGradient id="bg" x1="0" y1="0" x2="1" y2="1"><stop stop-color="#020617"/><stop offset=".5" stop-color="#0a1220"/><stop offset="1" stop-color="#01040b"/></linearGradient>
  <linearGradient id="silverBlue" x1="0" y1="0" x2="1" y2="1"><stop stop-color="#f8fbff"/><stop offset=".28" stop-color="#bfdbfe"/><stop offset=".58" stop-color="#60a5fa"/><stop offset="1" stop-color="#1d4ed8"/></linearGradient>
  <linearGradient id="cyan" x1="0" y1="0" x2="1" y2="0"><stop stop-color="#e0f7ff"/><stop offset=".5" stop-color="#38bdf8"/><stop offset="1" stop-color="#2563eb"/></linearGradient>
  <radialGradient id="halo"><stop stop-color="#38bdf8" stop-opacity=".28"/><stop offset="1" stop-color="#38bdf8" stop-opacity="0"/></radialGradient>
  <filter id="blur"><feGaussianBlur stdDeviation="14"/></filter>
  <filter id="shadow"><feDropShadow dx="0" dy="18" stdDeviation="16" flood-color="#000" flood-opacity=".8"/></filter>
  <pattern id="grid" width="42" height="42" patternUnits="userSpaceOnUse"><path d="M42 0H0V42" fill="none" stroke="#93c5fd" stroke-opacity=".035"/></pattern>
</defs>

<rect width="1200" height="560" rx="30" fill="url(#bg)"/>
<rect width="1200" height="560" rx="30" fill="url(#grid)"/>
<ellipse cx="600" cy="430" rx="430" ry="85" fill="#38bdf8" opacity=".08" filter="url(#blur)"/>
<circle cx="600" cy="275" r="260" fill="url(#halo)" filter="url(#blur)"/>

<!-- subtle particles -->
<g fill="#dbeafe">
 <circle cx="115" cy="95" r="2"><animate attributeName="opacity" values=".2;1;.2" dur="2.5s" repeatCount="indefinite"/></circle>
 <circle cx="1035" cy="100" r="2"><animate attributeName="opacity" values="1;.2;1" dur="3s" repeatCount="indefinite"/></circle>
 <circle cx="170" cy="405" r="2"><animate attributeName="cy" values="405;380;405" dur="3.5s" repeatCount="indefinite"/></circle>
 <circle cx="1020" cy="390" r="2"><animate attributeName="cy" values="390;420;390" dur="4s" repeatCount="indefinite"/></circle>
</g>

<!-- 1 PLATFORM / INITIALIZING -->
<g>
 <animate attributeName="opacity" values="1;1;0;0;0;0;0;0;0;0;0" keyTimes="0;.09;.11;.22;.33;.44;.55;.66;.77;.88;1" dur="12s" repeatCount="indefinite"/>
 <ellipse cx="600" cy="410" rx="245" ry="36" fill="#020617" stroke="#334155" filter="url(#shadow)"/>
 <ellipse cx="600" cy="400" rx="220" ry="25" fill="#0f172a" stroke="url(#silverBlue)" stroke-width="2"/>
 <ellipse cx="600" cy="394" rx="175" ry="11" fill="#38bdf8" opacity=".18"/>
 <text x="600" y="485" fill="#e0f2fe" font-family="Arial,sans-serif" font-size="16" text-anchor="middle" letter-spacing="3">01 · INITIALIZING</text>
</g>

<!-- 2 PROFILE LOADED -->
<g>
 <animate attributeName="opacity" values="0;0;1;1;0;0;0;0;0;0;0" keyTimes="0;.1;.12;.21;.23;.44;.55;.66;.77;.88;1" dur="12s" repeatCount="indefinite"/>
 <circle cx="600" cy="235" r="92" fill="#050b14" stroke="url(#silverBlue)" stroke-width="4" filter="url(#shadow)"/>
 <circle cx="600" cy="235" r="76" fill="#111827" stroke="#1e40af" stroke-width="2"/>
 <!-- stylized avatar -->
 <circle cx="600" cy="220" r="28" fill="#dbeafe" opacity=".9"/>
 <path d="M545 292 Q600 235 655 292 L655 315 L545 315Z" fill="#172033" stroke="#60a5fa"/>
 <path d="M570 210 Q600 170 630 210 Q620 188 600 185 Q580 188 570 210Z" fill="#111827"/>
 <circle cx="589" cy="221" r="3" fill="#0f172a"/><circle cx="611" cy="221" r="3" fill="#0f172a"/>
 <text x="600" y="365" fill="#f8fafc" font-family="Arial,sans-serif" font-size="25" font-weight="700" text-anchor="middle">REVATI G CHAVADAL</text>
 <text x="600" y="393" fill="#67e8f9" font-family="Arial,sans-serif" font-size="14" text-anchor="middle" letter-spacing="2">PROFILE LOADED</text>
</g>

<!-- 3 SKILLS DETECTED -->
<g font-family="Arial,sans-serif" font-weight="600" text-anchor="middle">
 <animate attributeName="opacity" values="0;0;0;1;1;0;0;0;0;0;0" keyTimes="0;.21;.23;.24;.32;.34;.55;.66;.77;.88;1" dur="12s" repeatCount="indefinite"/>
 <g filter="url(#shadow)">
  <rect x="250" y="150" width="175" height="58" rx="15" fill="#0b1220" stroke="#60a5fa"/><text x="337" y="186" fill="#e0f2fe" font-size="17">PYTHON</text>
  <rect x="825" y="150" width="175" height="58" rx="15" fill="#0b1220" stroke="#38bdf8"/><text x="912" y="186" fill="#e0f2fe" font-size="17">JAVASCRIPT</text>
  <rect x="180" y="275" width="205" height="58" rx="15" fill="#0b1220" stroke="#93c5fd"/><text x="282" y="311" fill="#e0f2fe" font-size="15">MACHINE LEARNING</text>
  <rect x="815" y="275" width="205" height="58" rx="15" fill="#0b1220" stroke="#22d3ee"/><text x="917" y="311" fill="#e0f2fe" font-size="17">FASTAPI</text>
 </g>
 <text x="600" y="425" fill="#67e8f9" font-size="15" letter-spacing="3">03 · SKILLS DETECTED</text>
</g>

<!-- 4 GITHUB DATA -->
<g font-family="Arial,sans-serif" text-anchor="middle">
 <animate attributeName="opacity" values="0;0;0;0;1;1;0;0;0;0;0" keyTimes="0;.32;.34;.43;.45;.54;.56;.66;.77;.88;1" dur="12s" repeatCount="indefinite"/>
 <g filter="url(#shadow)">
  <rect x="170" y="185" width="180" height="78" rx="18" fill="#0b1220" stroke="#60a5fa"/><text x="260" y="216" fill="#94a3b8" font-size="13">REPOSITORIES</text><text x="260" y="245" fill="#f8fafc" font-size="25" font-weight="700">LIVE</text>
  <rect x="390" y="155" width="180" height="78" rx="18" fill="#0b1220" stroke="#93c5fd"/><text x="480" y="186" fill="#94a3b8" font-size="13">STARS</text><text x="480" y="215" fill="#f8fafc" font-size="25" font-weight="700">LIVE</text>
  <rect x="630" y="155" width="180" height="78" rx="18" fill="#0b1220" stroke="#38bdf8"/><text x="720" y="186" fill="#94a3b8" font-size="13">COMMITS</text><text x="720" y="215" fill="#f8fafc" font-size="25" font-weight="700">LIVE</text>
  <rect x="850" y="185" width="180" height="78" rx="18" fill="#0b1220" stroke="#22d3ee"/><text x="940" y="216" fill="#94a3b8" font-size="13">FOLLOWERS</text><text x="940" y="245" fill="#f8fafc" font-size="25" font-weight="700">LIVE</text>
 </g>
 <circle cx="600" cy="330" r="45" fill="#020617" stroke="url(#cyan)" stroke-width="3"/>
 <text x="600" y="338" fill="#e0f2fe" font-size="24">⌘</text>
 <text x="600" y="415" fill="#67e8f9" font-size="15" letter-spacing="3">04 · GITHUB DATA SYNCING</text>
</g>

<!-- 5 CONTRIBUTION ACTIVITY -->
<g font-family="Arial,sans-serif" text-anchor="middle">
 <animate attributeName="opacity" values="0;0;0;0;0;1;1;0;0;0;0" keyTimes="0;.43;.45;.54;.56;.57;.65;.67;.77;.88;1" dur="12s" repeatCount="indefinite"/>
 <rect x="275" y="150" width="650" height="220" rx="24" fill="#08111f" stroke="#334e68" filter="url(#shadow)"/>
 <text x="600" y="190" fill="#e0f2fe" font-size="19">CONTRIBUTION ACTIVITY</text>
 <g transform="translate(330 215)">
  <g fill="#12345b">
   <rect x="0" y="0" width="20" height="20"/><rect x="28" y="0" width="20" height="20" fill="#1d4ed8"/><rect x="56" y="0" width="20" height="20" fill="#38bdf8"/><rect x="84" y="0" width="20" height="20" fill="#60a5fa"/><rect x="112" y="0" width="20" height="20" fill="#2563eb"/><rect x="140" y="0" width="20" height="20" fill="#0ea5e9"/><rect x="168" y="0" width="20" height="20"/><rect x="196" y="0" width="20" height="20" fill="#60a5fa"/><rect x="224" y="0" width="20" height="20" fill="#2563eb"/><rect x="252" y="0" width="20" height="20" fill="#38bdf8"/><rect x="280" y="0" width="20" height="20" fill="#1d4ed8"/><rect x="308" y="0" width="20" height="20"/><rect x="336" y="0" width="20" height="20" fill="#60a5fa"/><rect x="364" y="0" width="20" height="20" fill="#38bdf8"/><rect x="392" y="0" width="20" height="20" fill="#2563eb"/><rect x="420" y="0" width="20" height="20" fill="#1d4ed8"/><rect x="448" y="0" width="20" height="20"/><rect x="476" y="0" width="20" height="20" fill="#60a5fa"/>
  </g>
  <g transform="translate(0 28)" fill="#0c2746"><rect x="0" y="0" width="20" height="20" fill="#38bdf8"/><rect x="28" y="0" width="20" height="20"/><rect x="56" y="0" width="20" height="20" fill="#2563eb"/><rect x="84" y="0" width="20" height="20" fill="#60a5fa"/><rect x="112" y="0" width="20" height="20"/><rect x="140" y="0" width="20" height="20" fill="#1d4ed8"/><rect x="168" y="0" width="20" height="20" fill="#38bdf8"/><rect x="196" y="0" width="20" height="20"/><rect x="224" y="0" width="20" height="20" fill="#60a5fa"/><rect x="252" y="0" width="20" height="20"/><rect x="280" y="0" width="20" height="20" fill="#38bdf8"/><rect x="308" y="0" width="20" height="20" fill="#2563eb"/><rect x="336" y="0" width="20" height="20"/><rect x="364" y="0" width="20" height="20" fill="#60a5fa"/><rect x="392" y="0" width="20" height="20" fill="#38bdf8"/><rect x="420" y="0" width="20" height="20"/><rect x="448" y="0" width="20" height="20" fill="#2563eb"/><rect x="476" y="0" width="20" height="20"/></g>
 </g>
 <text x="600" y="425" fill="#67e8f9" font-size="15" letter-spacing="3">05 · ACTIVITY ANALYZED</text>
</g>

<!-- 6 STREAK -->
<g font-family="Arial,sans-serif" text-anchor="middle">
 <animate attributeName="opacity" values="0;0;0;0;0;0;1;1;0;0;0" keyTimes="0;.54;.56;.65;.67;.66;.68;.76;.78;.88;1" dur="12s" repeatCount="indefinite"/>
 <rect x="410" y="135" width="380" height="230" rx="28" fill="#08111f" stroke="url(#silverBlue)" stroke-width="2" filter="url(#shadow)"/>
 <text x="600" y="185" fill="#94a3b8" font-size="14" letter-spacing="3">CONTRIBUTION STREAK</text>
 <text x="600" y="275" fill="#f8fafc" font-size="74" font-weight="700">🔥</text>
 <text x="600" y="325" fill="#e0f2fe" font-size="21" font-weight="700">CONSISTENCY ONLINE</text>
 <text x="600" y="425" fill="#67e8f9" font-size="15" letter-spacing="3">06 · STREAK CALCULATED</text>
</g>

<!-- 7 GEOMETRIC ASSETS -->
<g>
 <animate attributeName="opacity" values="0;0;0;0;0;0;0;1;1;0;0" keyTimes="0;.65;.67;.76;.78;.77;.86;.88;.9;.92;1" dur="12s" repeatCount="indefinite"/>
 <g fill="none" stroke="url(#silverBlue)" stroke-width="2">
  <path d="M380 270 L420 230 L460 270 L420 310 Z"/><path d="M720 270 L760 230 L800 270 L760 310 Z"/>
  <path d="M540 170 L570 140 L600 170 L570 200 Z"/><path d="M600 360 L635 325 L670 360 L635 395 Z"/>
 </g>
 <g fill="#dbeafe"><circle cx="330" cy="330" r="8"/><circle cx="870" cy="330" r="8"/><circle cx="600" cy="135" r="7"/></g>
 <text x="600" y="445" fill="#67e8f9" font-family="Arial,sans-serif" font-size="15" text-anchor="middle" letter-spacing="3">07 · PREPARING 3D ASSETS</text>
</g>

<!-- 8 MERGE -->
<g>
 <animate attributeName="opacity" values="0;0;0;0;0;0;0;0;1;1;0" keyTimes="0;.76;.78;.86;.88;.87;.9;.92;.93;.98;1" dur="12s" repeatCount="indefinite"/>
 <g fill="none" stroke="url(#cyan)" opacity=".9">
  <ellipse cx="600" cy="275" rx="230" ry="95" stroke-width="2" stroke-dasharray="8 10"><animateTransform attributeName="transform" type="rotate" from="0 600 275" to="360 600 275" dur="4s" repeatCount="indefinite"/></ellipse>
  <ellipse cx="600" cy="275" rx="180" ry="70" stroke-width="1.5" stroke-dasharray="4 9"><animateTransform attributeName="transform" type="rotate" from="360 600 275" to="0 600 275" dur="3s" repeatCount="indefinite"/></ellipse>
 </g>
 <circle cx="600" cy="275" r="65" fill="#020617" stroke="url(#silverBlue)" stroke-width="4"/>
 <text x="600" y="282" fill="#e0f2fe" font-family="Arial,sans-serif" font-size="22" text-anchor="middle">AI</text>
 <text x="600" y="445" fill="#67e8f9" font-family="Arial,sans-serif" font-size="15" text-anchor="middle" letter-spacing="3">08 · MERGING EVERYTHING</text>
</g>

<!-- 9 FINAL PROFILE -->
<g font-family="Arial,sans-serif" text-anchor="middle">
 <animate attributeName="opacity" values="0;0;0;0;0;0;0;0;0;1;1" keyTimes="0;.86;.88;.89;.9;.91;.92;.93;.94;.95;1" dur="12s" repeatCount="indefinite"/>
 <rect x="310" y="105" width="580" height="310" rx="32" fill="#08111f" stroke="url(#silverBlue)" stroke-width="3" filter="url(#shadow)"/>
 <circle cx="600" cy="185" r="58" fill="#050b14" stroke="url(#cyan)" stroke-width="3"/>
 <circle cx="600" cy="170" r="23" fill="#dbeafe" opacity=".9"/>
 <path d="M562 230 Q600 190 638 230 L638 248 L562 248Z" fill="#172033" stroke="#60a5fa"/>
 <text x="600" y="300" fill="#f8fafc" font-size="30" font-weight="700">Revati G Chavadal</text>
 <text x="600" y="330" fill="#67e8f9" font-size="16" letter-spacing="2">AI / ML STUDENT · DEVELOPER</text>
 <line x1="455" y1="350" x2="745" y2="350" stroke="#1d4ed8"/>
 <text x="600" y="378" fill="#cbd5e1" font-size="13">PYTHON · MACHINE LEARNING · FASTAPI · DATA</text>
 <text x="600" y="475" fill="#e0f2fe" font-size="14" letter-spacing="4">09 · PROFILE ASSEMBLED</text>
</g>

<text x="600" y="530" fill="#475569" font-family="Arial,sans-serif" font-size="11" text-anchor="middle" letter-spacing="4">PROFILE SYSTEM · BUILD · LEARN · DEPLOY</text>
</svg>
